{"title":"Deadly-2 (2010) [Maar Dhaad 2014] Kannada Movie Hindi Dubbed 720","uid":11644116,"size":955496215,"categoryP":"video","categoryS":"hd___movies","magnet":"?xt=urn:btih:b13b4a3423141e374e2ea8b6b39db08f2d076792&amp;dn=Deadly-2+%282010%29+%5BMaar+Dhaad+2014%5D+Kannada+Movie+Hindi+Dubbed+720&amp;tr=udp%3A%2F%2Ftracker.openbittorrent.com%3A80&amp;tr=udp%3A%2F%2Fopen.demonii.com%3A1337&amp;tr=udp%3A%2F%2Ftracker.coppersurfer.tk%3A6969&amp;tr=udp%3A%2F%2Fexodus.desync.com%3A6969","seeders":0,"leechers":1,"uploader":"siretgr","files":-1,"time":1417798625,"description":"\n\n\n\n\n[center]http://www.imdb.com/title/tt3589310/\n &lt;a href=&quot;\nhttp://en.wikipedia.org/wiki/Deadly-2&quot; rel=&quot;nofollow&quot; target=&quot;_NEW&quot;&gt;\nhttp://en.wikipedia.org/wiki/Deadly-2&lt;/a&gt;\n\nDeadly-2 is a 2010 Kannada action - crime biographical film directed and written by Ravi Shrivatsa. The film is based on the real life incidents of an infamous underworld don, Soma and is a sequel to the same team's 2005 released film, Deadly Soma. The film features Auditya reprising his role as the protagonist and Meghana as his lady love replacing Rakshita in the prequel. Suhasini Maniratnam, Devaraj and Ravi Kale play other pivotal roles\n\n\n\nCast\n\n    Aditya as Somashekara\n    Meghana as Jyothi\n    Devaraj as Ashok Kumar\n    Suhasini Maniratnam\n    Ravi Khale\n    Praveen\n    Sangeetha\n    Syed Kirmani in a guest appearance\n\nMedia Info\n\nGeneral\nUnique ID                        : 231985599107303378268306589017338584215 (0xAE86CD1B5C44518EB201BA107A709C97)\nComplete name                    : E:Deadly-2 (2010) [Maar Dhaad 2014] Kannada Movie Hindi Dubbed 720p WEBRip 900MB [SReeJoN]Deadly-2 (2010) [Maar Dhaad 2014] Kannada Movie Hindi Dubbed 720p WEBRip 900MB [SReeJoN].mkv\nFormat                           : Matroska\nFile size                        : 911 MiB\nDuration                         : 1h 59mn\nOverall bit rate                 : 1 069 Kbps\nEncoded date                     : UTC 2014-12-05 05:07:06\nWriting application              : mkvmerge v6.1.0 ('Old Devil') built on Mar  2 2013 14:32:37\nWriting library                  : libebml v1.3.0 + libmatroska v1.4.0\n\nVideo\nID                               : 1\nFormat                           : AVC\nFormat/Info                      : Advanced Video Codec\nFormat profile                   : &lt;a class=&quot;__cf_email__&quot; href=&quot;/cdn-cgi/l/email-protection&quot; data-cfemail=&quot;0e436f67604e423a203e&quot;&gt;[email&amp;#160;protected]&lt;/a&gt;&lt;script cf-hash='f9e31' type=&quot;text/javascript&quot;&gt;\n/* &lt;![CDATA[ */!function(){try{var t=&quot;currentScript&quot;in document?document.currentScript:function(){for(var t=document.getElementsByTagName(&quot;script&quot;),e=t.length;e--;)if(t[e].getAttribute(&quot;cf-hash&quot;))return t[e]}();if(t&amp;&amp;t.previousSibling){var e,r,n,i,c=t.previousSibling,a=c.getAttribute(&quot;data-cfemail&quot;);if(a){for(e=&quot;&quot;,r=parseInt(a.substr(0,2),16),n=2;a.length-n;n+=2)i=parseInt(a.substr(n,2),16)^r,e+=String.fromCharCode(i);e=document.createTextNode(e),c.parentNode.replaceChild(e,c)}}}catch(u){}}();/* ]]&gt; */&lt;/script&gt;\nFormat settings, CABAC           : Yes\nFormat settings, ReFrames        : 4 frames\nCodec ID                         : V_MPEG4/ISO/AVC\nDuration                         : 1h 59mn\nBit rate                         : 955 Kbps\nWidth                            : 1 280 pixels\nHeight                           : 610 pixels\nDisplay aspect ratio             : 2.098\nFrame rate mode                  : Variable\nFrame rate                       : 23.976 fps\nColor space                      : YUV\nChroma subsampling               : 4:2:0\nBit depth                        : 8 bits\nScan type                        : Progressive\nBits/(Pixel*Frame)               : 0.051\nStream size                      : 798 MiB (88%)\nWriting library                  : x264 core 130 r2273 b3065e6\nEncoding settings                : cabac=1 / ref=1 / deblock=1:0:0 / analyse=0x1:0x111 / me=hex / subme=2 / psy=1 / psy_rd=1.00:0.00 / mixed_ref=0 / me_range=16 / chroma_me=1 / trellis=0 / 8x8dct=0 / cqm=0 / deadzone=21,11 / fast_pskip=1 / chroma_qp_offset=0 / threads=18 / lookahead_threads=4 / sliced_threads=0 / nr=0 / decimate=1 / interlaced=0 / bluray_compat=0 / constrained_intra=0 / bframes=3 / b_pyramid=2 / b_adapt=1 / b_bias=0 / direct=1 / weightb=1 / open_gop=0 / weightp=1 / keyint=240 / keyint_min=24 / scenecut=40 / intra_refresh=0 / rc_lookahead=10 / rc=2pass / mbtree=1 / bitrate=955 / ratetol=1.0 / qcomp=0.60 / qpmin=0 / qpmax=69 / qpstep=4 / cplxblur=20.0 / qblur=0.5 / vbv_maxrate=20000 / vbv_bufsize=25000 / nal_hrd=none / ip_ratio=1.40 / aq=1:1.00\nLanguage                         : English\nColor primaries                  : BT.709-5, BT.1361, IEC 61966-2-4, SMPTE RP177\nTransfer characteristics         : BT.709-5, BT.1361\nMatrix coefficients              : BT.709-5, BT.1361, IEC 61966-2-4 709, SMPTE RP177\n\nAudio\nID                               : 2\nFormat                           : AC-3\nFormat/Info                      : Audio Coding 3\nMode extension                   : CM (complete main)\nCodec ID                         : A_AC3\nDuration                         : 1h 59mn\nBit rate mode                    : Constant\nBit rate                         : 112 Kbps\nChannel(s)                       : 2 channels\nChannel positions                : Front: L R\nSampling rate                    : 44.1 KHz\nBit depth                        : 16 bits\nCompression mode                 : Lossy\nDelay relative to video          : 636ms\nStream size                      : 95.5 MiB (10%)\n\n\n\n[/center]","torrent":{"xt":"urn:btih:b13b4a3423141e374e2ea8b6b39db08f2d076792","amp;dn":"Deadly-2+%282010%29+%5BMaar+Dhaad+2014%5D+Kannada+Movie+Hindi+Dubbed+720","amp;tr":["udp%3A%2F%2Ftracker.openbittorrent.com%3A80","udp%3A%2F%2Fopen.demonii.com%3A1337","udp%3A%2F%2Ftracker.coppersurfer.tk%3A6969","udp%3A%2F%2Fexodus.desync.com%3A6969"],"infoHash":"b13b4a3423141e374e2ea8b6b39db08f2d076792","infoHashBuffer":{"type":"Buffer","data":[177,59,74,52,35,20,30,55,78,46,168,182,179,157,176,143,45,7,103,146]},"announce":[],"urlList":[]}}